<?xml version="1.0" standalone="no"?>
<!DOCTYPE svg PUBLIC "-//W3C//DTD SVG 20010904//EN"
 "http://www.w3.org/TR/2001/REC-SVG-20010904/DTD/svg10.dtd">
<svg version="1.0" xmlns="http://www.w3.org/2000/svg"
 width="1029.000000pt" height="507.000000pt" viewBox="0 0 1029.000000 507.000000"
 preserveAspectRatio="xMidYMid meet">

<g transform="translate(0.000000,507.000000) scale(0.100000,-0.100000)"
fill="#000000" stroke="none">
<path d="M8869 5040 c-9 -5 -68 -23 -130 -39 -135 -35 -234 -71 -308 -112 -29
-17 -153 -63 -275 -103 -290 -95 -399 -138 -483 -190 -88 -54 -111 -73 -211
-174 -187 -190 -338 -481 -405 -782 -19 -84 -21 -127 -22 -375 0 -279 0 -280
28 -374 64 -215 153 -358 334 -539 40 -40 73 -76 73 -81 0 -4 -60 -41 -132
-82 l-133 -74 -180 -3 c-198 -2 -225 -6 -225 -26 0 -21 23 -26 120 -26 89 0
150 -8 150 -19 0 -3 -26 -21 -58 -39 -31 -18 -87 -55 -124 -82 -53 -39 -68
-56 -68 -75 0 -14 5 -25 12 -25 6 0 68 37 137 83 149 99 221 141 228 134 2 -3
-38 -115 -90 -249 -109 -280 -190 -494 -209 -555 -7 -24 -18 -43 -24 -43 -5 0
-16 41 -23 93 -6 50 -16 124 -22 162 -103 736 -108 767 -154 1000 -54 268
-112 429 -165 463 -18 11 -24 9 -46 -13 -27 -27 -87 -150 -122 -250 -37 -105
-52 -187 -52 -291 0 -92 2 -102 23 -122 82 -77 202 76 233 293 8 63 19 86 28
59 10 -33 45 -220 71 -378 26 -159 27 -168 75 -501 41 -292 46 -329 74 -510
14 -88 27 -181 31 -208 4 -31 11 -47 20 -47 18 0 29 22 65 119 15 42 58 159
94 261 37 102 118 320 180 484 l112 299 122 63 122 64 83 -55 c182 -118 416
-216 615 -257 91 -18 140 -22 322 -22 227 1 278 7 445 57 102 31 207 76 313
133 334 182 619 560 723 959 21 81 23 111 24 315 0 214 -2 230 -28 328 -109
413 -343 736 -682 943 -135 83 -129 86 140 69 203 -13 222 -16 528 -89 70 -17
136 -31 147 -31 29 0 38 30 14 44 -157 92 -689 170 -943 137 -82 -11 -86 -10
-185 23 -151 51 -237 67 -384 73 -150 7 -158 16 -41 51 187 57 268 67 549 66
146 0 334 -4 418 -8 139 -8 152 -7 152 8 0 18 -12 24 -113 55 -63 20 -90 21
-410 21 -200 0 -349 -5 -358 -10z m-89 -275 c175 -31 347 -102 515 -212 203
-134 345 -271 453 -438 85 -129 133 -234 185 -403 l42 -137 0 -255 c-1 -250
-1 -257 -28 -345 -64 -207 -217 -464 -362 -610 -165 -166 -389 -287 -660 -357
-83 -21 -110 -23 -340 -23 -272 1 -326 8 -495 65 -146 49 -418 193 -453 238
-6 10 -28 24 -47 33 -20 9 -73 51 -118 94 -184 173 -287 344 -345 574 -19 75
-21 114 -21 306 0 167 4 243 18 315 56 303 206 605 393 794 156 158 324 241
538 266 137 15 155 20 155 35 0 8 -15 17 -36 21 -49 9 -29 19 72 38 110 19
424 20 534 1z m-2285 -2018 c13 -129 -39 -396 -88 -448 -19 -21 -21 -21 -34
-3 -18 24 -17 169 2 257 25 121 86 274 105 262 4 -3 11 -33 15 -68z"/>
<path d="M8390 4266 c-74 -14 -118 -33 -134 -58 -17 -27 -2 -31 76 -18 40 6
144 15 231 19 164 8 191 16 171 49 -10 15 -30 17 -145 19 -74 0 -163 -4 -199
-11z"/>
<path d="M9100 4103 c0 -9 22 -51 50 -93 29 -47 63 -119 84 -180 37 -110 40
-115 54 -106 34 21 18 139 -33 243 -48 98 -155 192 -155 136z"/>
<path d="M8311 3963 c-88 -89 -115 -145 -116 -241 0 -66 3 -76 24 -93 47 -38
96 -20 170 64 19 21 40 49 46 61 23 43 37 126 30 171 -7 48 -46 105 -72 105
-8 0 -45 -30 -82 -67z"/>
<path d="M8915 3736 c-79 -47 -146 -171 -148 -272 -2 -75 11 -94 64 -94 105 0
229 155 229 286 0 37 -6 51 -29 75 -36 35 -63 36 -116 5z"/>
<path d="M7552 3458 c-43 -43 25 -267 129 -419 119 -176 357 -350 587 -430
232 -81 541 -105 757 -60 139 29 228 58 254 82 51 47 -8 55 -154 19 -146 -35
-224 -43 -375 -37 -217 9 -360 44 -558 138 -134 63 -223 123 -323 217 -125
117 -210 252 -259 411 -26 86 -37 100 -58 79z"/>
<path d="M6048 4169 c-20 -11 -24 -29 -8 -29 34 0 167 -77 223 -129 31 -30 37
-32 37 -16 -1 46 -38 102 -86 132 -81 49 -132 62 -166 42z"/>
<path d="M1215 4117 c-48 -27 -101 -94 -115 -146 -10 -39 -4 -118 11 -142 12
-19 29 6 29 42 0 79 55 177 112 199 47 19 89 50 83 61 -11 17 -80 9 -120 -14z"/>
<path d="M2655 3950 c-715 -3 -1306 -9 -1314 -14 -7 -5 -20 -25 -30 -45 -15
-33 -16 -173 -19 -1603 l-3 -1568 2296 0 c1528 0 2294 -3 2290 -10 -4 -7 -775
-10 -2280 -10 l-2273 0 -25 -29 c-20 -24 -25 -44 -30 -109 -3 -45 -8 -85 -12
-91 -4 -7 -72 -11 -193 -11 l-187 0 0 108 c0 103 -1 111 -30 158 -42 67 -70
79 -180 78 -75 0 -99 -4 -148 -26 -105 -49 -205 -166 -222 -261 -4 -21 -16
-42 -26 -47 -10 -6 -65 -10 -123 -10 -62 0 -106 -4 -106 -10 0 -5 15 -17 32
-27 31 -17 240 -18 4424 -21 4388 -2 4391 -2 4409 18 10 11 15 23 11 28 -4 4
-624 9 -1378 12 l-1370 5 2 1721 c0 947 -2 1734 -6 1748 l-6 26 -1102 -2
c-605 -1 -1686 -4 -2401 -8z m3446 -1610 c-2 -850 -6 -1547 -8 -1550 -8 -8
-4395 -11 -4573 -3 l-165 8 -3 1533 c-2 1497 -2 1533 17 1527 13 -4 20 0 24
15 l5 20 2354 -2 2353 -3 -4 -1545z m-5520 -1675 l3 -50 -87 -3 c-68 -2 -87 0
-87 11 0 17 32 47 95 86 59 38 72 30 76 -44z m174 48 c32 -32 60 -92 48 -102
-4 -4 -46 -4 -93 -1 l-85 5 1 36 c1 19 4 48 8 62 6 24 11 27 50 27 34 0 49 -6
71 -27z m1474 -88 c2 -3 -1 -11 -7 -17 -7 -7 -12 -24 -12 -40 0 -29 23 -48 60
-48 30 0 80 53 80 84 l0 26 1125 0 1126 0 -16 -30 c-8 -16 -15 -39 -15 -51 0
-20 2 -20 22 -7 12 8 30 31 41 51 14 27 25 37 43 37 30 0 30 -1 -6 -40 -31
-33 -40 -70 -17 -70 15 0 49 34 65 66 8 15 8 24 0 32 -9 9 -2 12 30 12 23 0
42 -2 42 -5 0 -2 -11 -21 -25 -41 -14 -20 -25 -43 -25 -50 0 -40 73 19 85 68
5 21 13 28 31 28 29 0 29 3 3 -55 -40 -91 18 -78 68 15 14 25 28 36 47 38 l27
3 -25 -38 c-22 -32 -32 -60 -35 -95 -1 -5 -520 -9 -1153 -9 -634 -1 -1441 -4
-1793 -8 -547 -6 -643 -4 -657 8 -19 15 -23 55 -12 110 l7 31 80 0 80 0 -27
-25 c-47 -43 -29 -85 36 -85 61 0 102 62 66 98 -9 9 5 12 66 12 l78 0 -7 -30
c-13 -57 34 -95 90 -74 19 8 45 55 45 83 0 16 8 21 43 24 52 6 338 -1 346 -8z
m3866 -64 l0 -73 -505 1 c-277 1 -506 4 -508 5 -2 2 10 19 26 37 16 19 33 48
39 64 l10 30 149 5 c82 3 293 6 469 5 l320 0 0 -74z m-987 61 c-1 -5 -16 -37
-33 -70 -27 -57 -32 -62 -62 -62 -40 0 -41 8 -8 56 14 21 28 48 31 61 5 19 13
23 41 23 19 0 33 -4 31 -8z m-4303 -150 c-3 -4 -107 -8 -231 -10 l-224 -4 0
31 c0 71 -3 70 218 64 134 -4 205 -2 218 5 17 10 19 7 22 -35 2 -25 0 -48 -3
-51z"/>
<path d="M6050 3850 c0 -23 10 -26 28 -8 18 18 15 28 -8 28 -13 0 -20 -7 -20
-20z"/>
<path d="M1481 3816 c-11 -13 -10 -17 5 -23 23 -10 1349 -8 1604 2 147 6 180
10 160 18 -17 8 -295 12 -891 15 -774 3 -867 2 -878 -12z"/>
<path d="M5865 3807 c-88 -11 -98 -14 -90 -28 9 -13 114 -3 158 16 42 17 14
22 -68 12z"/>
<path d="M3618 3803 c-34 -5 -36 -18 -5 -27 37 -12 385 -19 500 -11 111 7 139
20 65 29 -59 7 -526 15 -560 9z"/>
<path d="M4773 3800 c-6 -7 -9 -19 -6 -26 4 -11 55 -14 272 -14 146 -1 340 -5
431 -10 90 -5 166 -7 169 -4 29 29 -183 51 -564 60 -225 5 -293 4 -302 -6z"/>
<path d="M4460 3756 c0 -10 9 -16 21 -16 24 0 21 23 -4 28 -10 2 -17 -3 -17
-12z"/>
<path d="M3389 2593 c-10 -11 -15 -57 -17 -164 -3 -143 -3 -148 18 -159 18
-10 26 -8 46 11 13 12 24 28 24 34 0 6 9 28 20 50 13 26 20 59 20 99 l0 61 34
-50 c53 -78 116 -145 137 -145 10 0 26 12 36 26 16 26 16 28 -10 79 -34 65
-99 135 -125 135 -11 0 -31 -9 -45 -20 l-26 -21 -12 23 c-28 52 -75 72 -100
41z"/>
<path d="M4060 2583 c-19 -24 -20 -37 -18 -172 3 -158 10 -174 51 -119 18 24
21 46 25 173 4 141 4 145 -16 145 -11 0 -30 -12 -42 -27z"/>
<path d="M3843 2526 c-68 -63 -104 -119 -86 -137 8 -8 29 -5 80 15 73 28 155
95 166 136 7 26 -13 36 -41 21 -15 -8 -23 -7 -32 4 -7 8 -16 15 -21 15 -4 0
-34 -24 -66 -54z"/>
<path d="M5245 584 c-23 -23 -2 -44 45 -44 41 0 88 29 76 48 -11 18 -102 15
-121 -4z"/>
<path d="M5523 590 c-13 -5 -23 -16 -23 -24 0 -21 33 -26 196 -26 133 0 155 2
174 18 44 36 19 42 -158 41 -92 0 -177 -4 -189 -9z"/>
<path d="M6208 2144 c-5 -4 -8 -15 -8 -24 0 -24 140 -45 295 -45 105 0 120 2
123 17 4 22 -10 25 -158 38 -63 5 -144 12 -180 16 -36 3 -68 3 -72 -2z"/>
<path d="M6598 1711 c-74 -52 -347 -272 -376 -304 -16 -17 -22 -34 -20 -53 3
-27 10 -22 203 133 221 177 265 216 265 237 0 28 -18 25 -72 -13z"/>
</g>
</svg>
